<?xml version="1.0" encoding="utf-8"?>
<!-- Generator: Adobe Illustrator 24.0.1, SVG Export Plug-In . SVG Version: 6.00 Build 0)  -->
<svg version="1.1" id="Layer_1" xmlns="http://www.w3.org/2000/svg" xmlns:xlink="http://www.w3.org/1999/xlink" x="0px" y="0px"
	 viewBox="0 0 685 178" style="enable-background:new 0 0 685 178;" xml:space="preserve">
<style type="text/css">
	.st0{fill:#1E1E1E;}
	.st1{fill:#EF0D1D;}
	.st2{fill:#FFFFFF;}
</style>
<path id="slogan" class="st0" d="M220.757,107.058c-0.441,0.455-0.759,1.165-0.954,2.132l-0.239,1.218h4.081l-0.424,2.291h-4.001
	l-2.411,13.079h-2.543l2.411-13.079h-2.411l0.397-2.291h2.438l0.265-1.45c0.282-1.566,0.861-2.77,1.735-3.611
	c0.875-0.841,2.027-1.261,3.458-1.261c0.583,0,1.135,0.083,1.656,0.247c0.521,0.164,0.949,0.401,1.285,0.71l-1.06,2.059
	c-0.495-0.483-1.122-0.725-1.881-0.725C221.799,106.377,221.199,106.604,220.757,107.058z M228.176,110.408h2.544l-2.782,15.37
	h-2.543L228.176,110.408z M229.051,106.957c-0.301-0.329-0.451-0.725-0.451-1.189c0-0.542,0.172-1.001,0.517-1.378
	c0.344-0.377,0.781-0.565,1.312-0.565c0.459,0,0.843,0.16,1.152,0.479c0.309,0.319,0.464,0.701,0.464,1.146
	c0,0.6-0.172,1.083-0.517,1.45c-0.345,0.367-0.791,0.551-1.338,0.551C229.73,107.45,229.351,107.286,229.051,106.957z
	 M236.549,120.877c-0.053,0.29-0.08,0.561-0.08,0.812c0,0.619,0.154,1.092,0.464,1.421c0.309,0.329,0.772,0.493,1.391,0.493
	c0.742,0,1.413-0.242,2.014-0.725l0.53,2.117c-0.848,0.638-1.934,0.957-3.259,0.957c-1.113,0-2.009-0.343-2.689-1.029
	c-0.681-0.686-1.021-1.628-1.021-2.828c0-0.406,0.035-0.792,0.106-1.16l1.51-8.236h-2.384l0.397-2.291h2.411l0.609-3.364h2.543
	l-0.609,3.364h4.027l-0.424,2.291h-4.027L236.549,120.877z M257.467,111.597c0.892,0.89,1.338,2.146,1.338,3.77
	c0,0.561-0.053,1.16-0.159,1.798l-1.563,8.613h-2.543l1.563-8.613c0.088-0.522,0.133-0.947,0.133-1.276
	c0-1.005-0.274-1.778-0.822-2.32c-0.547-0.541-1.36-0.812-2.438-0.812c-1.378,0-2.513,0.411-3.405,1.232
	c-0.892,0.822-1.488,2.044-1.789,3.668l-1.483,8.12h-2.544l2.782-15.37h2.438l-0.344,1.972c1.272-1.411,2.967-2.117,5.087-2.117
	C255.325,110.263,256.575,110.708,257.467,111.597z M264.343,118.963v0.174c0,1.431,0.371,2.519,1.113,3.263
	c0.742,0.745,1.854,1.116,3.338,1.116c0.865,0,1.678-0.159,2.438-0.479c0.759-0.319,1.396-0.749,1.908-1.29l1.086,2.001
	c-0.689,0.696-1.528,1.237-2.517,1.624s-2.031,0.58-3.126,0.58c-1.378,0-2.57-0.271-3.577-0.812
	c-1.007-0.541-1.784-1.314-2.332-2.32c-0.548-1.005-0.821-2.185-0.821-3.538c0-1.72,0.34-3.267,1.02-4.64
	c0.68-1.372,1.625-2.445,2.835-3.219c1.21-0.773,2.566-1.16,4.067-1.16c1.908,0,3.431,0.595,4.57,1.784
	c1.14,1.189,1.709,2.809,1.709,4.857c0,0.619-0.062,1.305-0.185,2.059H264.343z M266.436,113.743
	c-0.901,0.773-1.51,1.837-1.829,3.19h9.062c0.07-1.372-0.261-2.44-0.994-3.204c-0.733-0.764-1.735-1.146-3.007-1.146
	C268.414,112.583,267.337,112.97,266.436,113.743z M279.167,125.459c-1.051-0.329-1.868-0.754-2.451-1.276l1.139-2.204
	c0.547,0.483,1.259,0.865,2.133,1.146c0.875,0.28,1.789,0.42,2.743,0.42c1.201,0,2.115-0.198,2.742-0.595
	c0.627-0.396,0.94-0.952,0.94-1.667c0-0.58-0.251-0.996-0.755-1.247c-0.503-0.251-1.285-0.502-2.345-0.754
	c-0.99-0.232-1.798-0.468-2.425-0.71c-0.627-0.242-1.162-0.628-1.603-1.16c-0.441-0.531-0.662-1.251-0.662-2.16
	c0-1.005,0.26-1.885,0.782-2.639c0.521-0.754,1.263-1.334,2.226-1.74c0.962-0.406,2.08-0.609,3.352-0.609
	c0.936,0,1.846,0.126,2.729,0.377c0.883,0.251,1.607,0.59,2.173,1.015l-1.007,2.204c-0.548-0.406-1.184-0.71-1.908-0.914
	c-0.725-0.203-1.466-0.305-2.226-0.305c-1.148,0-2.032,0.208-2.65,0.624c-0.618,0.416-0.927,0.972-0.927,1.667
	c0,0.619,0.256,1.059,0.769,1.32c0.512,0.261,1.307,0.518,2.385,0.769c0.971,0.232,1.766,0.464,2.384,0.696s1.144,0.609,1.577,1.131
	c0.433,0.522,0.649,1.228,0.649,2.117c0,1.566-0.587,2.789-1.762,3.668c-1.175,0.88-2.734,1.319-4.677,1.319
	C281.327,125.952,280.218,125.787,279.167,125.459z M292.441,125.459c-1.051-0.329-1.868-0.754-2.451-1.276l1.139-2.204
	c0.547,0.483,1.259,0.865,2.133,1.146c0.875,0.28,1.789,0.42,2.743,0.42c1.201,0,2.115-0.198,2.742-0.595
	c0.627-0.396,0.94-0.952,0.94-1.667c0-0.58-0.251-0.996-0.755-1.247c-0.503-0.251-1.285-0.502-2.345-0.754
	c-0.99-0.232-1.798-0.468-2.425-0.71c-0.627-0.242-1.162-0.628-1.603-1.16c-0.441-0.531-0.662-1.251-0.662-2.16
	c0-1.005,0.26-1.885,0.782-2.639c0.521-0.754,1.263-1.334,2.226-1.74c0.962-0.406,2.08-0.609,3.352-0.609
	c0.936,0,1.846,0.126,2.729,0.377c0.883,0.251,1.607,0.59,2.173,1.015l-1.007,2.204c-0.548-0.406-1.184-0.71-1.908-0.914
	c-0.725-0.203-1.466-0.305-2.226-0.305c-1.148,0-2.032,0.208-2.65,0.624c-0.618,0.416-0.927,0.972-0.927,1.667
	c0,0.619,0.256,1.059,0.769,1.32c0.512,0.261,1.307,0.518,2.385,0.769c0.971,0.232,1.766,0.464,2.384,0.696s1.144,0.609,1.577,1.131
	c0.433,0.522,0.649,1.228,0.649,2.117c0,1.566-0.587,2.789-1.762,3.668c-1.175,0.88-2.734,1.319-4.677,1.319
	C294.601,125.952,293.492,125.787,292.441,125.459z M315.506,120.877c-0.053,0.29-0.08,0.561-0.08,0.812
	c0,0.619,0.154,1.092,0.464,1.421c0.309,0.329,0.772,0.493,1.391,0.493c0.742,0,1.413-0.242,2.014-0.725l0.53,2.117
	c-0.848,0.638-1.934,0.957-3.259,0.957c-1.113,0-2.009-0.343-2.689-1.029c-0.681-0.686-1.021-1.628-1.021-2.828
	c0-0.406,0.035-0.792,0.106-1.16l1.51-8.236h-2.384l0.397-2.291h2.411l0.609-3.364h2.543l-0.609,3.364h4.027l-0.424,2.291h-4.027
	L315.506,120.877z M324.7,118.963v0.174c0,1.431,0.371,2.519,1.113,3.263c0.742,0.745,1.854,1.116,3.338,1.116
	c0.865,0,1.678-0.159,2.438-0.479c0.759-0.319,1.396-0.749,1.908-1.29l1.086,2.001c-0.689,0.696-1.528,1.237-2.517,1.624
	s-2.031,0.58-3.126,0.58c-1.378,0-2.57-0.271-3.577-0.812c-1.007-0.541-1.784-1.314-2.332-2.32
	c-0.548-1.005-0.821-2.185-0.821-3.538c0-1.72,0.34-3.267,1.02-4.64c0.68-1.372,1.625-2.445,2.835-3.219
	c1.21-0.773,2.566-1.16,4.067-1.16c1.908,0,3.431,0.595,4.57,1.784c1.14,1.189,1.709,2.809,1.709,4.857
	c0,0.619-0.062,1.305-0.185,2.059H324.7z M326.793,113.743c-0.901,0.773-1.51,1.837-1.829,3.19h9.062
	c0.07-1.372-0.261-2.44-0.994-3.204c-0.733-0.764-1.735-1.146-3.007-1.146C328.771,112.583,327.694,112.97,326.793,113.743z
	 M341.551,125.125c-1.007-0.551-1.784-1.324-2.332-2.32c-0.548-0.995-0.821-2.16-0.821-3.494c0-1.721,0.353-3.267,1.06-4.64
	c0.706-1.373,1.687-2.451,2.941-3.233c1.254-0.783,2.676-1.175,4.266-1.175c2.773,0,4.699,1.112,5.776,3.335l-2.146,1.305
	c-0.742-1.469-2.014-2.204-3.815-2.204c-1.042,0-1.983,0.275-2.822,0.827c-0.839,0.551-1.497,1.319-1.974,2.306
	c-0.477,0.986-0.715,2.107-0.715,3.364c0,1.354,0.366,2.412,1.1,3.175c0.732,0.764,1.771,1.146,3.113,1.146
	c0.848,0,1.638-0.183,2.371-0.551c0.733-0.367,1.338-0.909,1.815-1.624l1.855,1.45c-0.654,0.986-1.528,1.759-2.623,2.32
	c-1.096,0.561-2.27,0.841-3.524,0.841C343.732,125.952,342.558,125.676,341.551,125.125z M367.08,111.597
	c0.892,0.89,1.338,2.146,1.338,3.77c0,0.561-0.053,1.16-0.159,1.798l-1.563,8.613h-2.543l1.563-8.613
	c0.088-0.522,0.133-0.947,0.133-1.276c0-1.005-0.274-1.778-0.822-2.32c-0.547-0.541-1.36-0.812-2.438-0.812
	c-1.378,0-2.513,0.411-3.405,1.232c-0.892,0.822-1.488,2.044-1.789,3.668l-1.483,8.12h-2.544l3.921-21.518h2.544l-1.458,7.946
	c1.254-1.295,2.906-1.943,4.955-1.943C364.938,110.263,366.188,110.708,367.08,111.597z M385.124,111.597
	c0.892,0.89,1.338,2.146,1.338,3.77c0,0.561-0.053,1.16-0.159,1.798l-1.563,8.613h-2.543l1.563-8.613
	c0.088-0.522,0.133-0.947,0.133-1.276c0-1.005-0.274-1.778-0.822-2.32c-0.547-0.541-1.36-0.812-2.438-0.812
	c-1.378,0-2.513,0.411-3.405,1.232c-0.892,0.822-1.488,2.044-1.789,3.668l-1.483,8.12h-2.544l2.782-15.37h2.438l-0.344,1.972
	c1.272-1.411,2.967-2.117,5.087-2.117C382.982,110.263,384.232,110.708,385.124,111.597z M392.635,125.125
	c-0.989-0.551-1.758-1.329-2.305-2.334c-0.548-1.005-0.821-2.165-0.821-3.48c0-1.721,0.353-3.267,1.06-4.64
	c0.706-1.373,1.687-2.451,2.941-3.233c1.254-0.783,2.667-1.175,4.239-1.175c1.325,0,2.481,0.271,3.471,0.812
	c0.989,0.542,1.753,1.31,2.292,2.306c0.539,0.996,0.809,2.161,0.809,3.495c0,1.721-0.354,3.272-1.06,4.654
	c-0.707,1.382-1.683,2.465-2.928,3.248c-1.246,0.783-2.654,1.174-4.226,1.174C394.782,125.952,393.625,125.676,392.635,125.125z
	 M399.087,122.689c0.839-0.551,1.493-1.32,1.961-2.306c0.468-0.986,0.702-2.107,0.702-3.364c0-1.373-0.362-2.436-1.086-3.19
	c-0.725-0.754-1.758-1.131-3.1-1.131c-1.042,0-1.979,0.275-2.809,0.827c-0.831,0.551-1.483,1.319-1.96,2.306
	c-0.477,0.986-0.715,2.107-0.715,3.364c0,1.354,0.366,2.412,1.1,3.175c0.732,0.764,1.762,1.146,3.086,1.146
	C397.307,123.516,398.248,123.24,399.087,122.689z M410.281,104.26h2.544l-3.921,21.518h-2.544L410.281,104.26z M416.853,125.125
	c-0.989-0.551-1.758-1.329-2.305-2.334c-0.548-1.005-0.821-2.165-0.821-3.48c0-1.721,0.353-3.267,1.06-4.64
	c0.706-1.373,1.687-2.451,2.941-3.233c1.254-0.783,2.667-1.175,4.239-1.175c1.325,0,2.481,0.271,3.471,0.812
	c0.988,0.542,1.752,1.31,2.291,2.306c0.539,0.996,0.809,2.161,0.809,3.495c0,1.721-0.354,3.272-1.061,4.654
	c-0.705,1.382-1.682,2.465-2.928,3.248c-1.244,0.783-2.653,1.174-4.225,1.174C418.999,125.952,417.842,125.676,416.853,125.125z
	 M423.305,122.689c0.838-0.551,1.492-1.32,1.961-2.306c0.467-0.986,0.701-2.107,0.701-3.364c0-1.373-0.361-2.436-1.086-3.19
	c-0.725-0.754-1.758-1.131-3.1-1.131c-1.042,0-1.979,0.275-2.809,0.827c-0.831,0.551-1.483,1.319-1.96,2.306
	c-0.477,0.986-0.715,2.107-0.715,3.364c0,1.354,0.366,2.412,1.1,3.175c0.732,0.764,1.762,1.146,3.086,1.146
	C421.524,123.516,422.465,123.24,423.305,122.689z M446.793,110.408l-2.411,13.282c-0.495,2.745-1.427,4.746-2.796,6.003
	c-1.368,1.256-3.236,1.885-5.604,1.885c-1.325,0-2.535-0.188-3.63-0.565c-1.096-0.377-2.022-0.914-2.782-1.609l1.404-2.146
	c0.565,0.561,1.303,1.01,2.213,1.349c0.909,0.338,1.902,0.507,2.98,0.507c1.625,0,2.884-0.406,3.775-1.218s1.497-2.069,1.815-3.77
	l0.212-1.102c-1.343,1.411-3.038,2.117-5.087,2.117c-1.237,0-2.328-0.251-3.272-0.754c-0.945-0.502-1.679-1.228-2.199-2.175
	c-0.521-0.947-0.782-2.059-0.782-3.335c0-1.604,0.34-3.064,1.021-4.379c0.68-1.315,1.63-2.349,2.849-3.103
	c1.219-0.754,2.597-1.131,4.133-1.131c1.201,0,2.266,0.247,3.193,0.74c0.927,0.493,1.611,1.232,2.053,2.218l0.504-2.813H446.793z
	 M440.235,121.936c0.839-0.512,1.492-1.228,1.961-2.146c0.468-0.918,0.701-1.958,0.701-3.118c0-1.237-0.366-2.208-1.099-2.915
	c-0.733-0.706-1.763-1.059-3.087-1.059c-1.061,0-2.01,0.256-2.849,0.769c-0.839,0.513-1.493,1.228-1.961,2.146
	c-0.468,0.918-0.702,1.948-0.702,3.088c0,1.257,0.371,2.238,1.113,2.944c0.741,0.706,1.766,1.058,3.073,1.058
	C438.446,122.704,439.396,122.448,440.235,121.936z M464.068,110.408l-9.963,17.052c-0.9,1.546-1.758,2.62-2.57,3.219
	s-1.774,0.899-2.888,0.899c-0.688,0-1.36-0.121-2.014-0.362c-0.653-0.242-1.156-0.576-1.51-1l1.324-2.059
	c0.636,0.696,1.431,1.044,2.385,1.044c0.601,0,1.13-0.174,1.59-0.522c0.459-0.348,0.936-0.938,1.431-1.769l0.716-1.218
	l-3.392-15.283h2.543l2.703,12.296l7.074-12.296H464.068z M494.498,111.583c0.892,0.88,1.338,2.131,1.338,3.755
	c0,0.445-0.063,1.054-0.186,1.827l-1.563,8.613h-2.544l1.563-8.613c0.089-0.541,0.133-0.986,0.133-1.334
	c0-1.005-0.257-1.769-0.769-2.291c-0.513-0.522-1.289-0.783-2.332-0.783c-1.307,0-2.38,0.401-3.219,1.204s-1.409,2.006-1.709,3.61
	l-1.511,8.207h-2.543l1.59-8.613c0.088-0.522,0.132-0.957,0.132-1.305c0-1.005-0.261-1.773-0.781-2.306
	c-0.521-0.531-1.303-0.797-2.345-0.797c-1.308,0-2.381,0.406-3.22,1.218s-1.408,2.04-1.709,3.683l-1.483,8.12h-2.544l2.782-15.37
	h2.438l-0.345,1.914c1.236-1.373,2.862-2.059,4.876-2.059c1.095,0,2.031,0.232,2.809,0.696c0.776,0.464,1.342,1.141,1.695,2.03
	c1.431-1.817,3.339-2.726,5.724-2.726C492.365,110.263,493.605,110.703,494.498,111.583z M514.887,110.408l-2.782,15.37h-2.438
	l0.345-1.885c-0.637,0.657-1.374,1.165-2.213,1.522s-1.753,0.536-2.742,0.536c-1.201,0-2.271-0.265-3.206-0.797
	c-0.937-0.531-1.669-1.3-2.199-2.306c-0.53-1.005-0.795-2.184-0.795-3.538c0-1.74,0.345-3.296,1.033-4.669
	c0.689-1.372,1.639-2.445,2.849-3.219c1.21-0.773,2.565-1.16,4.067-1.16c1.2,0,2.229,0.232,3.086,0.696
	c0.857,0.464,1.515,1.15,1.975,2.059l0.477-2.61H514.887z M508.435,122.689c0.839-0.551,1.493-1.32,1.961-2.306
	s0.702-2.107,0.702-3.364c0-1.373-0.362-2.436-1.086-3.19c-0.725-0.754-1.758-1.131-3.101-1.131c-1.042,0-1.979,0.275-2.809,0.827
	c-0.83,0.551-1.483,1.319-1.961,2.306c-0.477,0.986-0.715,2.107-0.715,3.364c0,1.354,0.366,2.412,1.1,3.175
	c0.732,0.764,1.762,1.146,3.087,1.146C506.655,123.516,507.596,123.24,508.435,122.689z M534.097,104.26l-3.922,21.518h-2.438
	l0.345-1.885c-0.637,0.657-1.374,1.165-2.213,1.522s-1.753,0.536-2.742,0.536c-1.201,0-2.271-0.265-3.206-0.797
	c-0.937-0.531-1.669-1.3-2.199-2.306c-0.53-1.005-0.795-2.184-0.795-3.538c0-1.74,0.345-3.296,1.033-4.669
	c0.689-1.372,1.639-2.445,2.849-3.219c1.21-0.773,2.565-1.16,4.067-1.16c1.2,0,2.238,0.237,3.113,0.71
	c0.874,0.474,1.532,1.165,1.974,2.074l1.59-8.787H534.097z M526.505,122.689c0.839-0.551,1.493-1.32,1.961-2.306
	s0.702-2.107,0.702-3.364c0-1.373-0.362-2.436-1.086-3.19c-0.725-0.754-1.758-1.131-3.101-1.131c-1.042,0-1.979,0.275-2.809,0.827
	c-0.83,0.551-1.483,1.319-1.961,2.306c-0.477,0.986-0.715,2.107-0.715,3.364c0,1.354,0.366,2.412,1.1,3.175
	c0.732,0.764,1.762,1.146,3.087,1.146C524.726,123.516,525.666,123.24,526.505,122.689z M537.486,118.963v0.174
	c0,1.431,0.371,2.519,1.113,3.263c0.742,0.745,1.854,1.116,3.339,1.116c0.865,0,1.678-0.159,2.438-0.479
	c0.759-0.319,1.395-0.749,1.907-1.29l1.087,2.001c-0.689,0.696-1.528,1.237-2.518,1.624s-2.031,0.58-3.126,0.58
	c-1.378,0-2.57-0.271-3.577-0.812c-1.007-0.541-1.784-1.314-2.332-2.32c-0.548-1.005-0.821-2.185-0.821-3.538
	c0-1.72,0.34-3.267,1.021-4.64c0.68-1.372,1.625-2.445,2.835-3.219c1.209-0.773,2.565-1.16,4.066-1.16
	c1.908,0,3.432,0.595,4.571,1.784c1.139,1.189,1.709,2.809,1.709,4.857c0,0.619-0.063,1.305-0.186,2.059H537.486z M539.58,113.743
	c-0.901,0.773-1.511,1.837-1.828,3.19h9.062c0.07-1.372-0.261-2.44-0.994-3.204c-0.732-0.764-1.735-1.146-3.007-1.146
	C541.558,112.583,540.48,112.97,539.58,113.743z M561.121,110.408h2.544l-2.782,15.37h-2.544L561.121,110.408z M561.995,106.957
	c-0.3-0.329-0.45-0.725-0.45-1.189c0-0.542,0.172-1.001,0.517-1.378s0.782-0.565,1.312-0.565c0.459,0,0.844,0.16,1.152,0.479
	c0.31,0.319,0.464,0.701,0.464,1.146c0,0.6-0.172,1.083-0.517,1.45s-0.791,0.551-1.338,0.551
	C562.675,107.45,562.296,107.286,561.995,106.957z M579.443,111.597c0.892,0.89,1.338,2.146,1.338,3.77
	c0,0.561-0.053,1.16-0.159,1.798l-1.563,8.613h-2.544l1.563-8.613c0.088-0.522,0.132-0.947,0.132-1.276
	c0-1.005-0.273-1.778-0.821-2.32c-0.548-0.541-1.36-0.812-2.438-0.812c-1.378,0-2.513,0.411-3.404,1.232
	c-0.893,0.822-1.488,2.044-1.789,3.668l-1.483,8.12h-2.544l2.782-15.37h2.438l-0.345,1.972c1.272-1.411,2.968-2.117,5.088-2.117
	C577.301,110.263,578.551,110.708,579.443,111.597z M603.938,111.061c0.937,0.532,1.669,1.295,2.199,2.291s0.795,2.17,0.795,3.523
	c0,1.74-0.345,3.296-1.033,4.669c-0.689,1.373-1.639,2.45-2.849,3.233s-2.565,1.174-4.067,1.174c-1.236,0-2.292-0.251-3.166-0.754
	c-0.874-0.502-1.532-1.237-1.974-2.204l-0.53,2.784h-2.411l3.922-21.518h2.543l-1.457,7.917c1.307-1.276,2.915-1.914,4.822-1.914
	C601.934,110.263,603.002,110.529,603.938,111.061z M601.687,122.689c0.83-0.551,1.483-1.32,1.961-2.306
	c0.477-0.986,0.715-2.107,0.715-3.364c0-1.373-0.362-2.436-1.086-3.19c-0.725-0.754-1.758-1.131-3.101-1.131
	c-1.042,0-1.982,0.275-2.821,0.827c-0.84,0.551-1.493,1.319-1.961,2.306c-0.468,0.986-0.702,2.107-0.702,3.364
	c0,1.354,0.366,2.412,1.1,3.175c0.732,0.764,1.762,1.146,3.087,1.146C599.92,123.516,600.855,123.24,601.687,122.689z
	 M611.437,118.963v0.174c0,1.431,0.371,2.519,1.113,3.263c0.742,0.745,1.854,1.116,3.339,1.116c0.865,0,1.678-0.159,2.438-0.479
	c0.759-0.319,1.395-0.749,1.907-1.29l1.087,2.001c-0.689,0.696-1.528,1.237-2.518,1.624s-2.031,0.58-3.126,0.58
	c-1.378,0-2.57-0.271-3.577-0.812c-1.007-0.541-1.784-1.314-2.332-2.32c-0.548-1.005-0.821-2.185-0.821-3.538
	c0-1.72,0.34-3.267,1.021-4.64c0.68-1.372,1.625-2.445,2.835-3.219c1.209-0.773,2.565-1.16,4.066-1.16
	c1.908,0,3.432,0.595,4.571,1.784c1.139,1.189,1.709,2.809,1.709,4.857c0,0.619-0.063,1.305-0.186,2.059H611.437z M613.53,113.743
	c-0.901,0.773-1.511,1.837-1.828,3.19h9.062c0.07-1.372-0.261-2.44-0.994-3.204c-0.732-0.764-1.735-1.146-3.007-1.146
	C615.508,112.583,614.431,112.97,613.53,113.743z M632.263,110.843c0.9-0.386,1.995-0.58,3.285-0.58l-0.478,2.697
	c-0.158-0.019-0.38-0.029-0.662-0.029c-2.914,0-4.681,1.721-5.299,5.162l-1.404,7.685h-2.544l2.782-15.37h2.438l-0.397,2.291
	C630.602,111.848,631.361,111.23,632.263,110.843z M639.761,104.26h2.543l-3.921,21.518h-2.544L639.761,104.26z M646.014,110.408
	h2.544l-2.782,15.37h-2.544L646.014,110.408z M646.888,106.957c-0.3-0.329-0.45-0.725-0.45-1.189c0-0.542,0.172-1.001,0.517-1.378
	s0.782-0.565,1.312-0.565c0.459,0,0.844,0.16,1.152,0.479c0.31,0.319,0.464,0.701,0.464,1.146c0,0.6-0.172,1.083-0.517,1.45
	s-0.791,0.551-1.338,0.551C647.567,107.45,647.188,107.286,646.888,106.957z M664.335,111.597c0.892,0.89,1.338,2.146,1.338,3.77
	c0,0.561-0.053,1.16-0.159,1.798l-1.563,8.613h-2.544l1.563-8.613c0.088-0.522,0.132-0.947,0.132-1.276
	c0-1.005-0.273-1.778-0.821-2.32c-0.548-0.541-1.36-0.812-2.438-0.812c-1.378,0-2.513,0.411-3.404,1.232
	c-0.893,0.822-1.488,2.044-1.789,3.668l-1.483,8.12h-2.544l2.782-15.37h2.438l-0.345,1.972c1.272-1.411,2.968-2.117,5.088-2.117
	C662.192,110.263,663.442,110.708,664.335,111.597z"/>
<path id="text" class="st0" d="M392.893,81.255c1.933,4.466,3.795,8.77,5.66,13.079c-1.04,0.406-9.767,0.543-12.873,0.225
	c-1.923-4.425-3.873-8.913-5.841-13.441c-0.696-0.053-1.35-0.103-2.249-0.171c0.635-1.445,1.179-2.784,1.827-4.067
	c0.12-0.238,0.654-0.347,1-0.354c1.816-0.035,3.633-0.011,5.45-0.02c1.628-0.009,3.241-0.146,4.788-0.725
	c1.823-0.682,3.23-1.866,4.126-3.666c0.765-1.537,0.41-2.767-1.115-3.541c-0.588-0.298-1.251-0.483-1.9-0.601
	c-2.368-0.429-4.757-0.51-7.105,0.057c-2.666,0.643-4.549,2.291-5.7,4.914c-2.305,5.252-4.694,10.465-7.05,15.693
	c-0.786,1.743-1.6,3.473-2.348,5.234c-0.22,0.517-0.452,0.804-1.03,0.801c-4.064-0.019-8.128-0.016-12.191-0.027
	c-0.132,0-0.263-0.087-0.549-0.188c0.739-1.662,1.458-3.294,2.19-4.92c2.435-5.408,5.015-10.753,7.265-16.242
	c1.651-4.026,4.448-6.574,8.247-8.098c2.771-1.112,5.663-1.779,8.65-1.827c5.683-0.091,11.367-0.199,17.05-0.167
	c2.588,0.015,5.14,0.479,7.336,2.096c2.215,1.631,2.805,3.899,1.718,6.494c-2.043,4.877-5.737,7.617-10.656,8.718
	C396.113,80.844,394.592,80.993,392.893,81.255z M344.863,63.085c-2.956,0.093-5.912,0.179-8.867,0.28
	c-2.932,0.1-5.77,0.708-8.512,1.772c-3.88,1.505-6.777,4.031-8.42,8.106c-1.594,3.952-3.463,7.785-5.184,11.682
	c-0.374,0.846-0.697,1.729-0.929,2.627c-0.534,2.073,0.017,3.734,1.779,4.844c1.038,0.654,2.232,1.091,3.405,1.459
	c2.632,0.824,5.385,0.701,8.083,0.769c4.05,0.102,8.107-0.133,12.162-0.145c3.084-0.009,6.08-0.526,8.987-1.525
	c3.959-1.36,7.098-3.739,8.84-7.83c1.247-2.93,2.609-5.807,3.91-8.712c0.74-1.654,1.612-3.266,2.158-4.987
	c1.093-3.45,0.271-5.269-2.327-6.529c-0.688-0.334-1.401-0.636-2.132-0.845c-2.217-0.637-4.498-0.823-6.787-0.868
	c-2.054-0.04-4.109-0.008-6.163-0.008C344.865,63.144,344.864,63.115,344.863,63.085z M328.72,89.722
	c-1.873-0.452-2.475-1.68-1.793-3.581c0.628-1.749,1.442-3.428,2.198-5.127c1.233-2.772,2.47-5.543,3.735-8.3
	c1.362-2.967,3.708-4.6,6.816-4.901c1.987-0.193,4.003-0.06,6.007-0.072c0.095-0.001,0.19,0.019,0.285,0.032
	c2.761,0.368,3.635,1.905,2.48,4.511c-1.923,4.341-3.89,8.661-5.853,12.983c-1.454,3.201-4.072,4.53-7.332,4.764
	c-0.808,0.058-1.623,0.009-2.434,0.009c-0.004,0.043-0.008,0.085-0.011,0.128C331.448,90.031,330.047,90.042,328.72,89.722z
	 M561.303,82.014c5.306,0,10.613,0.052,15.918-0.03c1.75-0.027,3.541-0.208,5.233-0.65c5.081-1.328,8.828-4.415,10.681-9.576
	c1.286-3.583,0.382-5.707-2.638-7.225c-1.979-0.995-4.109-1.32-6.244-1.329c-5.778-0.024-11.556,0.097-17.334,0.158
	c-2.794,0.03-5.503,0.578-8.11,1.574c-3.747,1.431-6.819,3.663-8.478,7.642c-1.434,3.438-3.062,6.789-4.546,10.205
	c-0.758,1.743-1.741,3.401-1.961,5.368c-0.192,1.715,0.287,3.097,1.669,4.104c1.476,1.076,3.155,1.694,4.914,1.876
	c2.745,0.284,5.508,0.48,8.266,0.514c6.022,0.074,12.046,0.023,18.069,0.023c0.517,0,1.033,0,1.586,0
	c0.693-1.546,1.344-2.999,2.073-4.627c-0.746,0-1.264,0-1.783,0c-5.641,0-11.282,0.008-16.922-0.01
	c-0.66-0.002-1.339-0.066-1.976-0.236c-1.827-0.488-2.523-1.732-1.893-3.578c0.487-1.428,1.179-2.781,1.796-4.202
	C560.263,82.014,560.783,82.014,561.303,82.014z M565.372,70.321c1.505-1.601,3.443-2.485,5.622-2.581
	c1.907-0.084,3.822-0.086,5.728,0.003c0.728,0.034,1.494,0.317,2.147,0.673c0.966,0.526,1.33,1.545,0.983,2.639
	c-1.156,3.646-2.776,5.834-6.94,6.193c-3.509,0.303-7.06,0.092-10.592,0.103c-0.085,0-0.171-0.077-0.408-0.191
	C562.96,74.819,563.575,72.232,565.372,70.321z M449.268,94.663c9.841-0.064,19.683-0.032,29.521-0.242
	c4.681-0.1,8.956-1.79,12.708-4.748c2.107-1.661,3.336-3.905,3.837-6.556c0.311-1.646-0.047-3.163-1.389-4.246
	c-0.592-0.478-1.257-0.922-1.958-1.179c-1.982-0.727-4.031-1.176-6.15-1.18c-3.107-0.005-6.215,0.034-9.321-0.02
	c-1.134-0.02-2.3-0.115-3.39-0.416c-1.646-0.454-2.133-1.665-1.582-3.318c0.473-1.419,1.342-2.468,2.581-3.232
	c2.29-1.411,4.807-1.821,7.413-1.827c5.497-0.013,10.994-0.004,16.491-0.004c1.195,0,2.39-0.009,3.585,0.002
	c0.499,0.005,0.959-0.029,1.206-0.578c0.556-1.232,1.117-2.462,1.792-3.945c-0.753,0-1.261,0-1.769,0
	c-8.556,0-17.112-0.007-25.668,0.008c-1.237,0.002-2.477,0.077-3.711,0.186c-4.175,0.368-7.995,1.768-11.437,4.257
	c-2.2,1.591-3.688,3.687-4.315,6.397c-0.598,2.584,0.175,4.307,2.474,5.471c2.091,1.059,4.343,1.483,6.646,1.525
	c3.202,0.059,6.406-0.043,9.607,0.044c1.267,0.034,2.559,0.268,3.777,0.635c1.226,0.369,1.732,1.575,1.351,2.837
	c-0.421,1.394-1.138,2.589-2.357,3.426c-2.143,1.471-4.549,2.042-7.057,2.062c-6.787,0.053-13.575,0.018-20.363,0.018
	c-0.518,0-1.035,0-1.56,0c-0.69,1.511-1.335,2.924-2.07,4.534C448.704,94.62,448.986,94.665,449.268,94.663z M271.959,63.174
	c-8.651,0-17.302-0.028-25.952,0.023c-1.897,0.011-3.814,0.171-5.683,0.501c-3.524,0.622-6.771,2.012-9.616,4.3
	c-1.983,1.595-3.364,3.597-3.895,6.183c-0.458,2.229,0.159,3.889,2.022,5.057c0.606,0.379,1.276,0.691,1.956,0.894
	c1.927,0.576,3.888,0.94,5.914,0.912c2.915-0.039,5.831-0.044,8.746,0.008c1.088,0.019,2.196,0.133,3.252,0.39
	c1.945,0.473,2.543,1.909,1.75,3.828c-0.588,1.422-1.546,2.455-2.863,3.172c-2.028,1.103-4.205,1.582-6.469,1.59
	c-6.739,0.025-13.478,0.009-20.217,0.009c-0.517,0-1.035,0-1.514,0c-0.779,1.538-1.442,2.968-2.044,4.627
	c1.594,0,2.929,0.009,4.264-0.001c8.74-0.065,17.481-0.054,26.218-0.236c4.538-0.094,8.692-1.687,12.388-4.423
	c2.084-1.543,3.477-3.619,4.086-6.234c0.659-2.83-0.168-4.717-2.716-5.873c-1.987-0.901-4.101-1.331-6.259-1.373
	c-3.201-0.062-6.404,0.003-9.606-0.027c-1.329-0.012-2.677,0.007-3.922-0.626c-1.294-0.658-1.626-1.46-1.213-2.894
	c0.664-2.308,2.348-3.514,4.384-4.312c1.848-0.724,3.779-0.979,5.751-0.976c6.452,0.01,12.905,0.004,19.357,0.004
	c0.516,0,1.033,0,1.601,0c0.669-1.458,1.3-2.831,2.076-4.521C272.981,63.174,272.47,63.174,271.959,63.174z M276.253,94.675
	c0.681,0.003,0.891-0.465,1.114-0.958c0.725-1.608,1.436-3.222,2.16-4.83c2.454-5.449,4.919-10.893,7.364-16.347
	c1.08-2.41,2.923-3.848,5.36-4.477c2.394-0.618,4.824-0.501,7.237-0.088c0.646,0.111,1.292,0.353,1.882,0.653
	c1.535,0.782,1.874,1.809,1.169,3.383c-0.853,1.902-2.356,3.064-4.199,3.784c-1.49,0.581-3.064,0.697-4.642,0.712
	c-1.816,0.017-3.632,0.032-5.447-0.008c-0.723-0.016-1.141,0.236-1.408,0.943c-0.347,0.916-0.802,1.787-1.186,2.689
	c-0.102,0.24-0.112,0.522-0.188,0.902c2.413,0,4.702,0.026,6.991-0.006c3.529-0.049,7.068,0.009,10.584-0.248
	c3.446-0.252,6.572-1.592,9.264-3.892c1.649-1.409,2.908-3.127,3.685-5.192c1.135-3.015,0.297-5.311-2.429-6.838
	c-2.062-1.155-4.292-1.667-6.598-1.665c-5.68,0.004-11.36,0.074-17.039,0.183c-3.222,0.062-6.337,0.762-9.302,2.085
	c-3.015,1.345-5.557,3.264-6.994,6.439c-2.927,6.47-5.845,12.944-8.757,19.421c-0.455,1.011-0.861,2.046-1.404,3.344
	C267.947,94.665,272.1,94.655,276.253,94.675z M637.521,63.179c-8.12,0.056-16.241,0.089-24.361,0.199
	c-3.274,0.044-6.433,0.806-9.432,2.175c-3.008,1.374-5.484,3.369-6.899,6.557c-1.551,3.495-3.138,6.972-4.688,10.468
	c-0.654,1.476-1.376,2.937-1.85,4.476c-0.807,2.626,0.098,4.725,2.515,5.861c1.201,0.564,2.509,1.011,3.811,1.193
	c2.259,0.317,4.549,0.513,6.829,0.536c6.596,0.068,13.193,0.024,19.79,0.024c0.287,0,0.596,0.069,0.855-0.019
	c0.329-0.113,0.763-0.278,0.899-0.553c0.621-1.261,1.153-2.569,1.802-4.055c-0.639,0-1.097,0-1.556,0
	c-5.784,0-11.568,0.015-17.352-0.018c-0.793-0.005-1.624-0.142-2.369-0.417c-1.312-0.483-1.854-1.7-1.512-3.092
	c0.081-0.332,0.21-0.656,0.35-0.968c2.015-4.466,4.001-8.947,6.085-13.379c0.422-0.897,1.131-1.709,1.862-2.381
	c1.72-1.583,3.829-2.101,6.096-2.096c5.593,0.014,11.186,0.005,16.779,0.005c0.335,0,0.67-0.015,1.004,0
	c0.486,0.022,0.81-0.178,1.015-0.645c0.528-1.204,1.077-2.398,1.69-3.756C638.341,63.246,637.931,63.177,637.521,63.179z
	 M511.522,94.487c0.347,0.09,0.525,0.176,0.703,0.177c3.968,0.007,7.935-0.003,11.903,0.014c0.622,0.003,0.919-0.275,1.169-0.847
	c1.1-2.514,2.255-5.002,3.38-7.505c1.848-4.113,3.679-8.234,5.534-12.344c0.944-2.092,1.926-4.165,2.909-6.286
	c0.604,0,1.127,0,1.65,0c3.012,0,6.023,0.001,9.035-0.001c0.517,0,1.055,0.094,1.337-0.569c0.529-1.245,1.094-2.474,1.751-3.951
	c-0.744,0-1.253,0-1.763,0c-8.27,0-16.54-0.038-24.81,0.025c-2.28,0.017-4.573,0.22-6.834,0.537
	c-3.344,0.469-6.49,1.608-9.257,3.664c-1.675,1.245-3.034,2.787-3.802,4.806c0.157,0.101,0.233,0.193,0.309,0.193
	c3.967,0.017,7.934,0.038,11.9,0.014c0.321-0.002,0.764-0.229,0.941-0.498c1.293-1.971,3.217-2.853,5.69-3.549
	C519.283,77.224,515.421,85.814,511.522,94.487z M419.745,94.645c4.015,0.012,8.03,0.006,12.044,0.029
	c0.639,0.004,0.934-0.324,1.169-0.871c0.56-1.306,1.151-2.598,1.736-3.892c2.906-6.43,5.813-12.859,8.722-19.287
	c0.439-0.97,0.886-1.937,1.345-2.941c3.969,0,7.832,0,11.761,0c0.661-1.457,1.298-2.859,2.046-4.509c-0.754,0-1.262,0-1.771,0
	c-8.556,0-17.112-0.03-25.667,0.016c-3.297,0.018-6.578,0.366-9.736,1.43c-3.081,1.037-5.915,2.523-7.975,5.227
	c-0.543,0.713-1.143,1.428-1.267,2.507c4.334,0,8.568,0,12.782,0c1.727-2.453,3.916-3.821,5.789-3.533
	c-3.842,8.544-7.668,17.055-11.51,25.6C419.496,94.543,419.62,94.645,419.745,94.645z M658.625,94.661
	c3.773,0.01,7.546-0.014,11.319,0.021c0.802,0.007,1.177-0.327,1.487-1.058c0.955-2.255,1.975-4.481,2.986-6.711
	c2.868-6.331,5.748-12.657,8.614-18.988c0.677-1.494,1.318-3.006,1.97-4.494c-0.193-0.116-0.273-0.206-0.354-0.207
	c-4.106-0.02-8.212-0.029-12.318-0.051c-0.577-0.003-0.835,0.336-1.049,0.825c-0.962,2.197-1.936,4.389-2.921,6.575
	c-0.924,2.051-1.868,4.092-2.846,6.231c-0.609,0-1.176,0-1.743,0c-3.439,0-6.878-0.013-10.316,0.017
	c-0.439,0.004-1.117,0.091-1.272,0.378c-0.682,1.26-1.213,2.607-1.91,4.173c4.516,0,8.735,0,13.177,0
	c-2.015,4.484-3.93,8.744-5.897,13.121C657.996,94.566,658.31,94.661,658.625,94.661z M654.539,63.174
	c-3.155,0-6.315,0.111-9.463-0.044c-1.717-0.085-2.572,0.432-3.307,2.113c-3.692,8.441-7.549,16.806-11.342,25.2
	c-0.597,1.321-1.159,2.658-1.777,4.078c0.335,0.071,0.511,0.14,0.687,0.14c3.968,0.007,7.935-0.021,11.902,0.031
	c0.836,0.011,1.059-0.508,1.323-1.087c1.158-2.541,2.313-5.084,3.46-7.63c2.454-5.45,4.903-10.902,7.354-16.354
	c0.92-2.047,1.839-4.095,2.895-6.446C655.476,63.174,655.007,63.174,654.539,63.174z"/>
<g id="sign_1_">
	<path id="bg" class="st1" d="M0.278,0c59.101,0,118.258,0,177.545,0c0,59.354,0,118.623,0,178c-59.187,0-118.348,0-177.545,0
		c-0.007-0.007-0.052-0.044-0.092-0.087c-0.039-0.041-0.101-0.085-0.103-0.131C0.048,177.201,0,176.619,0,176.037
		C0.015,117.493,0.034,58.949,0.06,0.405C0.06,0.305,0.164,0.206,0.278,0z"/>
	<path id="sign" class="st2" d="M32.525,140.686c2.768-0.064,6.502-0.07,10.228-0.252c6.887-0.336,13.703-1.287,20.462-2.646
		c9.411-1.893,18.591-4.539,27.369-8.458c6.912-3.086,13.455-6.793,18.99-12.034c4.264-4.037,7.557-8.712,8.981-14.535
		c1.421-5.811,0.428-11.342-1.869-16.721c-2.247-5.263-5.547-9.849-9.336-14.093c-1.864-2.088-3.861-4.058-5.741-6.133
		c-1.98-2.185-3.561-4.634-4.388-7.493c-1.463-5.061-0.118-9.544,2.971-13.614c3.011-3.967,6.895-6.95,11.066-9.582
		c6.342-4.002,13.14-7.066,20.124-9.761c9.003-3.475,18.208-6.273,27.623-8.375c1.641-0.366,3.34-0.576,5.02-0.636
		c1.633-0.059,2.294,0.7,2.019,2.298c-0.172,0.995-0.589,2.045-1.19,2.853c-2.837,3.822-6.688,6.112-11.355,6.957
		c-3.675,0.665-7.387,1.13-11.064,1.785c-8.749,1.559-17.391,3.54-25.668,6.862c-3.696,1.483-7.271,3.21-10.396,5.726
		c-1.92,1.546-3.647,3.267-4.677,5.578c-1.311,2.942-0.942,5.793,0.408,8.595c1.258,2.613,3.084,4.812,5.145,6.815
		c3.484,3.385,6.751,6.941,9.4,11.041c3.468,5.369,5.824,11.133,6.552,17.52c0.91,7.983-0.912,15.389-4.773,22.338
		c-4.359,7.847-10.573,14.023-17.729,19.315c-9.466,7.001-19.951,12.054-30.966,16.085c-9.833,3.599-19.91,6.346-30.194,8.257
		c-6.94,1.29-13.948,2.218-20.933,3.255c-1.088,0.162-2.223,0.125-3.326,0.043c-2.156-0.16-3.314-1.501-3.465-3.671
		c-0.135-1.947,0.417-3.735,1.285-5.382c2.581-4.895,6.313-8.652,11.437-10.903C26.77,140.742,29.132,140.43,32.525,140.686z"/>
</g>
</svg>
