<svg version="1.1" id="Layer_1" xmlns="http://www.w3.org/2000/svg" x="0" y="0" viewBox="0 0 685 178" xml:space="preserve"><style>.st0{fill:#fff}</style><path id="slogan" class="st0" d="M220.8 107.1c-.4.5-.8 1.2-1 2.1l-.2 1.2h4.1l-.4 2.3h-4l-2.4 13.1h-2.5l2.4-13.1h-2.4l.4-2.3h2.4l.3-1.4c.3-1.6.9-2.8 1.7-3.6.9-.8 2-1.3 3.5-1.3.6 0 1.1.1 1.7.2.5.2.9.4 1.3.7l-1.1 2.1c-.5-.5-1.1-.7-1.9-.7-.9 0-1.5.2-1.9.7zm7.4 3.3h2.5l-2.8 15.4h-2.5l2.8-15.4zm.9-3.4c-.3-.3-.5-.7-.5-1.2s.2-1 .5-1.4c.3-.4.8-.6 1.3-.6s.8.2 1.2.5c.3.3.5.7.5 1.1 0 .6-.2 1.1-.5 1.4s-.8.6-1.3.6c-.6 0-.9-.1-1.2-.4zm7.4 13.9c-.1.3-.1.6-.1.8 0 .6.2 1.1.5 1.4.3.3.8.5 1.4.5.7 0 1.4-.2 2-.7l.5 2.1c-.8.6-1.9 1-3.3 1-1.1 0-2-.3-2.7-1-.7-.7-1-1.6-1-2.8 0-.4 0-.8.1-1.2l1.5-8.2H233l.4-2.3h2.4l.6-3.4h2.5l-.6 3.4h4l-.4 2.3h-4l-1.4 8.1zm21-9.3c.9.9 1.3 2.1 1.3 3.8 0 .6-.1 1.2-.2 1.8l-1.6 8.6h-2.5l1.6-8.6c.1-.5.1-.9.1-1.3 0-1-.3-1.8-.8-2.3-.5-.5-1.4-.8-2.4-.8-1.4 0-2.5.4-3.4 1.2-.9.8-1.5 2-1.8 3.7l-1.5 8.1h-2.5l2.8-15.4h2.4l-.3 2c1.3-1.4 3-2.1 5.1-2.1 1.5 0 2.8.4 3.7 1.3zm6.8 7.4v.2c0 1.4.4 2.5 1.1 3.3.7.7 1.9 1.1 3.3 1.1.9 0 1.7-.2 2.4-.5.8-.3 1.4-.7 1.9-1.3l1.1 2c-.7.7-1.5 1.2-2.5 1.6s-2 .6-3.1.6c-1.4 0-2.6-.3-3.6-.8s-1.8-1.3-2.3-2.3c-.5-1-.8-2.2-.8-3.5 0-1.7.3-3.3 1-4.6.7-1.4 1.6-2.4 2.8-3.2 1.2-.8 2.6-1.2 4.1-1.2 1.9 0 3.4.6 4.6 1.8 1.1 1.2 1.7 2.8 1.7 4.9 0 .6-.1 1.3-.2 2.1h-11.5zm2.1-5.3c-.9.8-1.5 1.8-1.8 3.2h9.1c.1-1.4-.3-2.4-1-3.2s-1.7-1.1-3-1.1-2.4.4-3.3 1.1zm12.8 11.8c-1.1-.3-1.9-.8-2.5-1.3l1.1-2.2c.5.5 1.3.9 2.1 1.1.9.3 1.8.4 2.7.4 1.2 0 2.1-.2 2.7-.6.6-.4.9-1 .9-1.7 0-.6-.3-1-.8-1.2-.5-.3-1.3-.5-2.3-.8-1-.2-1.8-.5-2.4-.7-.6-.2-1.2-.6-1.6-1.2-.4-.5-.7-1.3-.7-2.2 0-1 .3-1.9.8-2.6.5-.8 1.3-1.3 2.2-1.7 1-.4 2.1-.6 3.4-.6.9 0 1.8.1 2.7.4s1.6.6 2.2 1l-1 2.2c-.5-.4-1.2-.7-1.9-.9-.7-.2-1.5-.3-2.2-.3-1.1 0-2 .2-2.6.6-.6.4-.9 1-.9 1.7 0 .6.3 1.1.8 1.3.5.3 1.3.5 2.4.8 1 .2 1.8.5 2.4.7s1.1.6 1.6 1.1c.4.5.6 1.2.6 2.1 0 1.6-.6 2.8-1.8 3.7-1.2.9-2.7 1.3-4.7 1.3-1.1.1-2.2-.1-3.2-.4zm13.2 0c-1.1-.3-1.9-.8-2.5-1.3l1.1-2.2c.5.5 1.3.9 2.1 1.1.9.3 1.8.4 2.7.4 1.2 0 2.1-.2 2.7-.6.6-.4.9-1 .9-1.7 0-.6-.3-1-.8-1.2-.5-.3-1.3-.5-2.3-.8-1-.2-1.8-.5-2.4-.7-.6-.2-1.2-.6-1.6-1.2-.4-.5-.7-1.3-.7-2.2 0-1 .3-1.9.8-2.6.5-.8 1.3-1.3 2.2-1.7 1-.4 2.1-.6 3.4-.6.9 0 1.8.1 2.7.4s1.6.6 2.2 1l-1 2.2c-.5-.4-1.2-.7-1.9-.9-.7-.2-1.5-.3-2.2-.3-1.1 0-2 .2-2.6.6-.6.4-.9 1-.9 1.7 0 .6.3 1.1.8 1.3.5.3 1.3.5 2.4.8 1 .2 1.8.5 2.4.7s1.1.6 1.6 1.1c.4.5.6 1.2.6 2.1 0 1.6-.6 2.8-1.8 3.7-1.2.9-2.7 1.3-4.7 1.3-1 .1-2.1-.1-3.2-.4zm23.1-4.6c-.1.3-.1.6-.1.8 0 .6.2 1.1.5 1.4.3.3.8.5 1.4.5.7 0 1.4-.2 2-.7l.5 2.1c-.8.6-1.9 1-3.3 1-1.1 0-2-.3-2.7-1-.7-.7-1-1.6-1-2.8 0-.4 0-.8.1-1.2l1.5-8.2H312l.4-2.3h2.4l.6-3.4h2.5l-.6 3.4h4l-.4 2.3h-4l-1.4 8.1zm9.2-1.9v.2c0 1.4.4 2.5 1.1 3.3.7.7 1.9 1.1 3.3 1.1.9 0 1.7-.2 2.4-.5.8-.3 1.4-.7 1.9-1.3l1.1 2c-.7.7-1.5 1.2-2.5 1.6s-2 .6-3.1.6c-1.4 0-2.6-.3-3.6-.8s-1.8-1.3-2.3-2.3c-.5-1-.8-2.2-.8-3.5 0-1.7.3-3.3 1-4.6.7-1.4 1.6-2.4 2.8-3.2 1.2-.8 2.6-1.2 4.1-1.2 1.9 0 3.4.6 4.6 1.8 1.1 1.2 1.7 2.8 1.7 4.9 0 .6-.1 1.3-.2 2.1h-11.5zm2.1-5.3c-.9.8-1.5 1.8-1.8 3.2h9.1c.1-1.4-.3-2.4-1-3.2s-1.7-1.1-3-1.1-2.4.4-3.3 1.1zm14.8 11.4c-1-.6-1.8-1.3-2.3-2.3-.5-1-.8-2.2-.8-3.5 0-1.7.4-3.3 1.1-4.6.7-1.4 1.7-2.5 2.9-3.2 1.3-.8 2.7-1.2 4.3-1.2 2.8 0 4.7 1.1 5.8 3.3l-2.1 1.3c-.7-1.5-2-2.2-3.8-2.2-1 0-2 .3-2.8.8-.8.6-1.5 1.3-2 2.3-.5 1-.7 2.1-.7 3.4 0 1.4.4 2.4 1.1 3.2.7.8 1.8 1.1 3.1 1.1.8 0 1.6-.2 2.4-.6.7-.4 1.3-.9 1.8-1.6l1.9 1.4c-.7 1-1.5 1.8-2.6 2.3-1.1.6-2.3.8-3.5.8-1.7.2-2.8-.1-3.8-.7zm25.5-13.5c.9.9 1.3 2.1 1.3 3.8 0 .6-.1 1.2-.2 1.8l-1.6 8.6h-2.5l1.6-8.6c.1-.5.1-.9.1-1.3 0-1-.3-1.8-.8-2.3-.5-.5-1.4-.8-2.4-.8-1.4 0-2.5.4-3.4 1.2-.9.8-1.5 2-1.8 3.7l-1.5 8.1h-2.5l3.9-21.5h2.5l-1.5 7.9c1.3-1.3 2.9-1.9 5-1.9 1.6 0 2.9.4 3.8 1.3zm18 0c.9.9 1.3 2.1 1.3 3.8 0 .6-.1 1.2-.2 1.8l-1.6 8.6h-2.5l1.6-8.6c.1-.5.1-.9.1-1.3 0-1-.3-1.8-.8-2.3-.5-.5-1.4-.8-2.4-.8-1.4 0-2.5.4-3.4 1.2-.9.8-1.5 2-1.8 3.7l-1.5 8.1h-2.5l2.8-15.4h2.4l-.3 2c1.3-1.4 3-2.1 5.1-2.1 1.6 0 2.8.4 3.7 1.3zm7.5 13.5c-1-.6-1.8-1.3-2.3-2.3-.5-1-.8-2.2-.8-3.5 0-1.7.4-3.3 1.1-4.6.7-1.4 1.7-2.5 2.9-3.2 1.3-.8 2.7-1.2 4.2-1.2 1.3 0 2.5.3 3.5.8s1.8 1.3 2.3 2.3.8 2.2.8 3.5c0 1.7-.4 3.3-1.1 4.7-.7 1.4-1.7 2.5-2.9 3.2-1.2.8-2.7 1.2-4.2 1.2-1.3 0-2.5-.3-3.5-.9zm6.5-2.4c.8-.6 1.5-1.3 2-2.3s.7-2.1.7-3.4c0-1.4-.4-2.4-1.1-3.2-.7-.8-1.8-1.1-3.1-1.1-1 0-2 .3-2.8.8-.8.6-1.5 1.3-2 2.3-.5 1-.7 2.1-.7 3.4 0 1.4.4 2.4 1.1 3.2.7.8 1.8 1.1 3.1 1.1 1 0 1.9-.3 2.8-.8zm11.2-18.4h2.5l-3.9 21.5h-2.5l3.9-21.5zm6.6 20.8c-1-.6-1.8-1.3-2.3-2.3-.5-1-.8-2.2-.8-3.5 0-1.7.4-3.3 1.1-4.6.7-1.4 1.7-2.5 2.9-3.2 1.3-.8 2.7-1.2 4.2-1.2 1.3 0 2.5.3 3.5.8s1.8 1.3 2.3 2.3c.5 1 .8 2.2.8 3.5 0 1.7-.4 3.3-1.1 4.7-.7 1.4-1.7 2.5-2.9 3.2-1.2.8-2.7 1.2-4.2 1.2-1.4 0-2.6-.3-3.5-.9zm6.4-2.4c.8-.6 1.5-1.3 2-2.3.5-1 .7-2.1.7-3.4 0-1.4-.4-2.4-1.1-3.2-.7-.8-1.8-1.1-3.1-1.1-1 0-2 .3-2.8.8-.8.6-1.5 1.3-2 2.3-.5 1-.7 2.1-.7 3.4 0 1.4.4 2.4 1.1 3.2.7.8 1.8 1.1 3.1 1.1 1 0 2-.3 2.8-.8zm23.5-12.3l-2.4 13.3c-.5 2.7-1.4 4.7-2.8 6-1.4 1.3-3.2 1.9-5.6 1.9-1.3 0-2.5-.2-3.6-.6-1.1-.4-2-.9-2.8-1.6l1.4-2.1c.6.6 1.3 1 2.2 1.3.9.3 1.9.5 3 .5 1.6 0 2.9-.4 3.8-1.2s1.5-2.1 1.8-3.8l.2-1.1c-1.3 1.4-3 2.1-5.1 2.1-1.2 0-2.3-.3-3.3-.8-.9-.5-1.7-1.2-2.2-2.2-.5-.9-.8-2.1-.8-3.3 0-1.6.3-3.1 1-4.4.7-1.3 1.6-2.3 2.8-3.1s2.6-1.1 4.1-1.1c1.2 0 2.3.2 3.2.7s1.6 1.2 2.1 2.2l.5-2.8 2.5.1zm-6.6 11.5c.8-.5 1.5-1.2 2-2.1.5-.9.7-2 .7-3.1 0-1.2-.4-2.2-1.1-2.9-.7-.7-1.8-1.1-3.1-1.1-1.1 0-2 .3-2.8.8s-1.5 1.2-2 2.1-.7 1.9-.7 3.1c0 1.3.4 2.2 1.1 2.9.7.7 1.8 1.1 3.1 1.1 1 0 2-.3 2.8-.8zm23.9-11.5l-10 17.1c-.9 1.5-1.8 2.6-2.6 3.2s-1.8.9-2.9.9c-.7 0-1.4-.1-2-.4-.7-.2-1.2-.6-1.5-1l1.3-2.1c.6.7 1.4 1 2.4 1 .6 0 1.1-.2 1.6-.5s.9-.9 1.4-1.8l.7-1.2-3.4-15.3h2.5l2.7 12.3 7.1-12.3 2.7.1zm30.4 1.2c.9.9 1.3 2.1 1.3 3.8 0 .4-.1 1.1-.2 1.8l-1.6 8.6h-2.5l1.6-8.6c.1-.5.1-1 .1-1.3 0-1-.3-1.8-.8-2.3-.5-.5-1.3-.8-2.3-.8-1.3 0-2.4.4-3.2 1.2s-1.4 2-1.7 3.6l-1.5 8.2h-2.5l1.6-8.6c.1-.5.1-1 .1-1.3 0-1-.3-1.8-.8-2.3-.5-.5-1.3-.8-2.3-.8-1.3 0-2.4.4-3.2 1.2s-1.4 2-1.7 3.7l-1.5 8.1h-2.5l2.8-15.4h2.4l-.3 1.9c1.2-1.4 2.9-2.1 4.9-2.1 1.1 0 2 .2 2.8.7.8.5 1.3 1.1 1.7 2 1.4-1.8 3.3-2.7 5.7-2.7 1.5.1 2.7.5 3.6 1.4zm20.4-1.2l-2.8 15.4h-2.4l.3-1.9c-.6.7-1.4 1.2-2.2 1.5s-1.8.5-2.7.5c-1.2 0-2.3-.3-3.2-.8-.9-.5-1.7-1.3-2.2-2.3-.5-1-.8-2.2-.8-3.5 0-1.7.3-3.3 1-4.7.7-1.4 1.6-2.4 2.8-3.2 1.2-.8 2.6-1.2 4.1-1.2 1.2 0 2.2.2 3.1.7s1.5 1.2 2 2.1l.5-2.6h2.5zm-6.5 12.3c.8-.6 1.5-1.3 2-2.3s.7-2.1.7-3.4c0-1.4-.4-2.4-1.1-3.2-.7-.8-1.8-1.1-3.1-1.1-1 0-2 .3-2.8.8-.8.6-1.5 1.3-2 2.3-.5 1-.7 2.1-.7 3.4 0 1.4.4 2.4 1.1 3.2.7.8 1.8 1.1 3.1 1.1 1.1 0 2-.3 2.8-.8zm25.7-18.4l-3.9 21.5h-2.4l.3-1.9c-.6.7-1.4 1.2-2.2 1.5s-1.8.5-2.7.5c-1.2 0-2.3-.3-3.2-.8-.9-.5-1.7-1.3-2.2-2.3-.5-1-.8-2.2-.8-3.5 0-1.7.3-3.3 1-4.7.7-1.4 1.6-2.4 2.8-3.2 1.2-.8 2.6-1.2 4.1-1.2 1.2 0 2.2.2 3.1.7.9.5 1.5 1.2 2 2.1l1.6-8.8 2.5.1zm-7.6 18.4c.8-.6 1.5-1.3 2-2.3s.7-2.1.7-3.4c0-1.4-.4-2.4-1.1-3.2-.7-.8-1.8-1.1-3.1-1.1-1 0-2 .3-2.8.8-.8.6-1.5 1.3-2 2.3-.5 1-.7 2.1-.7 3.4 0 1.4.4 2.4 1.1 3.2.7.8 1.8 1.1 3.1 1.1 1 0 2-.3 2.8-.8zm11-3.7v.2c0 1.4.4 2.5 1.1 3.3.7.7 1.9 1.1 3.3 1.1.9 0 1.7-.2 2.4-.5.8-.3 1.4-.7 1.9-1.3l1.1 2c-.7.7-1.5 1.2-2.5 1.6s-2 .6-3.1.6c-1.4 0-2.6-.3-3.6-.8s-1.8-1.3-2.3-2.3c-.5-1-.8-2.2-.8-3.5 0-1.7.3-3.3 1-4.6.7-1.4 1.6-2.4 2.8-3.2 1.2-.8 2.6-1.2 4.1-1.2 1.9 0 3.4.6 4.6 1.8 1.1 1.2 1.7 2.8 1.7 4.9 0 .6-.1 1.3-.2 2.1h-11.5zm2.1-5.3c-.9.8-1.5 1.8-1.8 3.2h9.1c.1-1.4-.3-2.4-1-3.2-.7-.8-1.7-1.1-3-1.1s-2.4.4-3.3 1.1zm21.5-3.3h2.5l-2.8 15.4h-2.5l2.8-15.4zm.9-3.4c-.3-.3-.5-.7-.5-1.2s.2-1 .5-1.4.8-.6 1.3-.6.8.2 1.2.5c.3.3.5.7.5 1.1 0 .6-.2 1.1-.5 1.4s-.8.6-1.3.6-.9-.1-1.2-.4zm17.4 4.6c.9.9 1.3 2.1 1.3 3.8 0 .6-.1 1.2-.2 1.8l-1.6 8.6h-2.5l1.6-8.6c.1-.5.1-.9.1-1.3 0-1-.3-1.8-.8-2.3-.5-.5-1.4-.8-2.4-.8-1.4 0-2.5.4-3.4 1.2-.9.8-1.5 2-1.8 3.7l-1.5 8.1h-2.5l2.8-15.4h2.4l-.3 2c1.3-1.4 3-2.1 5.1-2.1 1.6 0 2.9.4 3.7 1.3zm24.5-.5c.9.5 1.7 1.3 2.2 2.3s.8 2.2.8 3.5c0 1.7-.3 3.3-1 4.7-.7 1.4-1.6 2.4-2.8 3.2s-2.6 1.2-4.1 1.2c-1.2 0-2.3-.3-3.2-.8-.9-.5-1.5-1.2-2-2.2l-.5 2.8h-2.4l3.9-21.5h2.5l-1.5 7.9c1.3-1.3 2.9-1.9 4.8-1.9 1.3 0 2.4.2 3.3.8zm-2.2 11.6c.8-.6 1.5-1.3 2-2.3.5-1 .7-2.1.7-3.4 0-1.4-.4-2.4-1.1-3.2-.7-.8-1.8-1.1-3.1-1.1-1 0-2 .3-2.8.8-.8.6-1.5 1.3-2 2.3-.5 1-.7 2.1-.7 3.4 0 1.4.4 2.4 1.1 3.2.7.8 1.8 1.1 3.1 1.1 1 0 2-.3 2.8-.8zm9.7-3.7v.2c0 1.4.4 2.5 1.1 3.3.7.7 1.9 1.1 3.3 1.1.9 0 1.7-.2 2.4-.5.8-.3 1.4-.7 1.9-1.3l1.1 2c-.7.7-1.5 1.2-2.5 1.6s-2 .6-3.1.6c-1.4 0-2.6-.3-3.6-.8s-1.8-1.3-2.3-2.3c-.5-1-.8-2.2-.8-3.5 0-1.7.3-3.3 1-4.6.7-1.4 1.6-2.4 2.8-3.2 1.2-.8 2.6-1.2 4.1-1.2 1.9 0 3.4.6 4.6 1.8 1.1 1.2 1.7 2.8 1.7 4.9 0 .6-.1 1.3-.2 2.1h-11.5zm2.1-5.3c-.9.8-1.5 1.8-1.8 3.2h9.1c.1-1.4-.3-2.4-1-3.2-.7-.8-1.7-1.1-3-1.1s-2.4.4-3.3 1.1zm18.8-2.9c.9-.4 2-.6 3.3-.6l-.5 2.7h-.7c-2.9 0-4.7 1.7-5.3 5.2l-1.4 7.7h-2.5l2.8-15.4h2.4l-.4 2.3c.6-.9 1.4-1.5 2.3-1.9zm7.5-6.5h2.5l-3.9 21.5h-2.5l3.9-21.5zm6.2 6.1h2.5l-2.8 15.4h-2.5l2.8-15.4zm.9-3.4c-.3-.3-.5-.7-.5-1.2s.2-1 .5-1.4.8-.6 1.3-.6.8.2 1.2.5c.3.3.5.7.5 1.1 0 .6-.2 1.1-.5 1.4s-.8.6-1.3.6-.9-.1-1.2-.4zm17.4 4.6c.9.9 1.3 2.1 1.3 3.8 0 .6-.1 1.2-.2 1.8l-1.6 8.6h-2.5l1.6-8.6c.1-.5.1-.9.1-1.3 0-1-.3-1.8-.8-2.3-.5-.5-1.4-.8-2.4-.8-1.4 0-2.5.4-3.4 1.2-.9.8-1.5 2-1.8 3.7l-1.5 8.1h-2.5l2.8-15.4h2.4l-.3 2c1.3-1.4 3-2.1 5.1-2.1 1.6 0 2.8.4 3.7 1.3z"/><path id="text" class="st0" d="M392.9 81.3c1.9 4.5 3.8 8.8 5.7 13.1-1 .4-9.8.5-12.9.2-1.9-4.4-3.9-8.9-5.8-13.4-.7-.1-1.4-.1-2.2-.2.6-1.4 1.2-2.8 1.8-4.1.1-.2.7-.3 1-.4h5.5c1.6 0 3.2-.1 4.8-.7 1.8-.7 3.2-1.9 4.1-3.7.8-1.5.4-2.8-1.1-3.5-.6-.3-1.3-.5-1.9-.6-2.4-.4-4.8-.5-7.1.1-2.7.6-4.5 2.3-5.7 4.9-2.3 5.3-4.7 10.5-7 15.7-.8 1.7-1.6 3.5-2.3 5.2-.2.5-.5.8-1 .8h-12.2c-.1 0-.3-.1-.5-.2.7-1.7 1.5-3.3 2.2-4.9 2.4-5.4 5-10.8 7.3-16.2 1.7-4 4.4-6.6 8.2-8.1 2.8-1.1 5.7-1.8 8.6-1.8 5.7-.1 11.4-.2 17-.2 2.6 0 5.1.5 7.3 2.1s2.8 3.9 1.7 6.5c-2 4.9-5.7 7.6-10.7 8.7-1.6.2-3.1.4-4.8.7zm-48-18.2c-3 .1-5.9.2-8.9.3-2.9.1-5.8.7-8.5 1.8-3.9 1.5-6.8 4-8.4 8.1-1.6 4-3.5 7.8-5.2 11.7-.4.8-.7 1.7-.9 2.6-.5 2.1 0 3.7 1.8 4.8 1 .7 2.2 1.1 3.4 1.5 2.6.8 5.4.7 8.1.8 4 .1 8.1-.1 12.2-.1 3.1 0 6.1-.5 9-1.5 4-1.4 7.1-3.7 8.8-7.8 1.2-2.9 2.6-5.8 3.9-8.7.7-1.7 1.6-3.3 2.2-5 1.1-3.4.3-5.3-2.3-6.5-.7-.3-1.4-.6-2.1-.8-2.2-.6-4.5-.8-6.8-.9-2.2-.3-4.3-.2-6.3-.3zm-16.2 26.6c-1.9-.5-2.5-1.7-1.8-3.6.6-1.7 1.4-3.4 2.2-5.1 1.2-2.8 2.5-5.5 3.7-8.3 1.4-3 3.7-4.6 6.8-4.9 2-.2 4-.1 6-.1h.3c2.8.4 3.6 1.9 2.5 4.5-1.9 4.3-3.9 8.7-5.9 13-1.5 3.2-4.1 4.5-7.3 4.8-.8.1-1.6 0-2.4 0v.1c-1.4-.1-2.8-.1-4.1-.4zM561.3 82c5.3 0 10.6.1 15.9 0 1.8 0 3.5-.2 5.2-.7 5.1-1.3 8.8-4.4 10.7-9.6 1.3-3.6.4-5.7-2.6-7.2-2-1-4.1-1.3-6.2-1.3-5.8 0-11.6.1-17.3.2-2.8 0-5.5.6-8.1 1.6-3.7 1.4-6.8 3.7-8.5 7.6-1.4 3.4-3.1 6.8-4.5 10.2-.8 1.7-1.7 3.4-2 5.4-.2 1.7.3 3.1 1.7 4.1 1.5 1.1 3.2 1.7 4.9 1.9 2.7.3 5.5.5 8.3.5 6 .1 12 0 18.1 0h1.6c.7-1.5 1.3-3 2.1-4.6h-18.7c-.7 0-1.3-.1-2-.2-1.8-.5-2.5-1.7-1.9-3.6.5-1.4 1.2-2.8 1.8-4.2.5-.1 1-.1 1.5-.1zm4.1-11.7c1.5-1.6 3.4-2.5 5.6-2.6 1.9-.1 3.8-.1 5.7 0 .7 0 1.5.3 2.1.7 1 .5 1.3 1.5 1 2.6-1.2 3.6-2.8 5.8-6.9 6.2-3.5.3-7.1.1-10.6.1-.1 0-.2-.1-.4-.2 1.1-2.3 1.7-4.9 3.5-6.8zM449.3 94.7c9.8-.1 19.7 0 29.5-.2 4.7-.1 9-1.8 12.7-4.7 2.1-1.7 3.3-3.9 3.8-6.6.3-1.6 0-3.2-1.4-4.2-.6-.5-1.3-.9-2-1.2-2-.7-4-1.2-6.1-1.2h-9.3c-1.1 0-2.3-.1-3.4-.4-1.6-.5-2.1-1.7-1.6-3.3.5-1.4 1.3-2.5 2.6-3.2 2.3-1.4 4.8-1.8 7.4-1.8h20.1c.5 0 1 0 1.2-.6.6-1.2 1.1-2.5 1.8-3.9h-27.5c-1.2 0-2.5.1-3.7.2-4.2.4-8 1.8-11.4 4.3-2.2 1.6-3.7 3.7-4.3 6.4-.6 2.6.2 4.3 2.5 5.5 2.1 1.1 4.3 1.5 6.6 1.5 3.2.1 6.4 0 9.6 0 1.3 0 2.6.3 3.8.6 1.2.4 1.7 1.6 1.4 2.8-.4 1.4-1.1 2.6-2.4 3.4-2.1 1.5-4.5 2-7.1 2.1-6.8.1-13.6 0-20.4 0h-1.6c-.7 1.5-1.3 2.9-2.1 4.5.7-.1 1 0 1.3 0zM272 63.2h-26c-1.9 0-3.8.2-5.7.5-3.5.6-6.8 2-9.6 4.3-2 1.6-3.4 3.6-3.9 6.2-.5 2.2.2 3.9 2 5.1.6.4 1.3.7 2 .9 1.9.6 3.9.9 5.9.9h8.7c1.1 0 2.2.1 3.3.4 1.9.5 2.5 1.9 1.8 3.8-.6 1.4-1.5 2.5-2.9 3.2-2 1.1-4.2 1.6-6.5 1.6h-21.7c-.8 1.5-1.4 3-2 4.6h4.3c8.7-.1 17.5-.1 26.2-.2 4.5-.1 8.7-1.7 12.4-4.4 2.1-1.5 3.5-3.6 4.1-6.2.7-2.8-.2-4.7-2.7-5.9-2-.9-4.1-1.3-6.3-1.4-3.2-.1-6.4 0-9.6 0-1.3 0-2.7 0-3.9-.6-1.3-.7-1.6-1.5-1.2-2.9.7-2.3 2.3-3.5 4.4-4.3 1.8-.7 3.8-1 5.8-1h21c.7-1.5 1.3-2.8 2.1-4.5-1-.1-1.5-.1-2-.1zm4.3 31.5c.7 0 .9-.5 1.1-1 .7-1.6 1.4-3.2 2.2-4.8 2.5-5.4 4.9-10.9 7.4-16.3 1.1-2.4 2.9-3.8 5.4-4.5 2.4-.6 4.8-.5 7.2-.1.6.1 1.3.4 1.9.7 1.5.8 1.9 1.8 1.2 3.4-.9 1.9-2.4 3.1-4.2 3.8-1.5.6-3.1.7-4.6.7h-5.4c-.7 0-1.1.2-1.4.9-.3.9-.8 1.8-1.2 2.7-.1.2-.1.5-.2.9h7c3.5 0 7.1 0 10.6-.2 3.4-.3 6.6-1.6 9.3-3.9 1.6-1.4 2.9-3.1 3.7-5.2 1.1-3 .3-5.3-2.4-6.8-2.1-1.2-4.3-1.7-6.6-1.7-5.7 0-11.4.1-17 .2-3.2.1-6.3.8-9.3 2.1-3 1.3-5.6 3.3-7 6.4-2.9 6.5-5.8 12.9-8.8 19.4-.5 1-.9 2-1.4 3.3h12.5zm361.2-31.5c-8.1.1-16.2.1-24.4.2-3.3 0-6.4.8-9.4 2.2-3 1.4-5.5 3.4-6.9 6.6-1.6 3.5-3.1 7-4.7 10.5-.7 1.5-1.4 2.9-1.8 4.5-.8 2.6.1 4.7 2.5 5.9 1.2.6 2.5 1 3.8 1.2 2.3.3 4.5.5 6.8.5 6.6.1 13.2 0 19.8 0 .3 0 .6.1.9 0 .3-.1.8-.3.9-.6.6-1.3 1.2-2.6 1.8-4.1h-19c-.8 0-1.6-.1-2.4-.4-1.3-.5-1.9-1.7-1.5-3.1.1-.3.2-.7.3-1 2-4.5 4-8.9 6.1-13.4.4-.9 1.1-1.7 1.9-2.4 1.7-1.6 3.8-2.1 6.1-2.1h17.8c.5 0 .8-.2 1-.6.5-1.2 1.1-2.4 1.7-3.8-.5-.1-.9-.1-1.3-.1zm-126 31.3c.3.1.5.2.7.2h11.9c.6 0 .9-.3 1.2-.8 1.1-2.5 2.3-5 3.4-7.5 1.8-4.1 3.7-8.2 5.5-12.3.9-2.1 1.9-4.2 2.9-6.3h10.7c.5 0 1.1.1 1.3-.6.5-1.2 1.1-2.5 1.8-4h-26.6c-2.3 0-4.6.2-6.8.5-3.3.5-6.5 1.6-9.3 3.7-1.7 1.2-3 2.8-3.8 4.8.2.1.2.2.3.2h11.9c.3 0 .8-.2.9-.5 1.3-2 3.2-2.9 5.7-3.5-3.9 8.8-7.8 17.4-11.7 26.1zm-91.8.1h12c.6 0 .9-.3 1.2-.9.6-1.3 1.2-2.6 1.7-3.9 2.9-6.4 5.8-12.9 8.7-19.3.4-1 .9-1.9 1.3-2.9h11.8c.7-1.5 1.3-2.9 2-4.5h-27.5c-3.3 0-6.6.4-9.7 1.4-3.1 1-5.9 2.5-8 5.2-.5.7-1.1 1.4-1.3 2.5h12.8c1.7-2.5 3.9-3.8 5.8-3.5-3.8 8.5-7.7 17.1-11.5 25.6.5.2.6.3.7.3zm238.9.1h11.3c.8 0 1.2-.3 1.5-1.1 1-2.3 2-4.5 3-6.7 2.9-6.3 5.7-12.7 8.6-19 .7-1.5 1.3-3 2-4.5-.2-.1-.3-.2-.4-.2-4.1 0-8.2 0-12.3-.1-.6 0-.8.3-1 .8-1 2.2-1.9 4.4-2.9 6.6-.9 2.1-1.9 4.1-2.8 6.2h-12c-.4 0-1.1.1-1.3.4-.7 1.3-1.2 2.6-1.9 4.2h13.2c-2 4.5-3.9 8.7-5.9 13.1.3.2.6.3.9.3zm-4.1-31.5c-3.2 0-6.3.1-9.5 0-1.7-.1-2.6.4-3.3 2.1-3.7 8.4-7.5 16.8-11.3 25.2-.6 1.3-1.2 2.7-1.8 4.1.3.1.5.1.7.1h11.9c.8 0 1.1-.5 1.3-1.1 1.2-2.5 2.3-5.1 3.5-7.6 2.5-5.4 4.9-10.9 7.4-16.4.9-2 1.8-4.1 2.9-6.4h-1.8z"/><g id="sign_1_"><path id="bg" d="M.3 0h177.5v178H.3s-.1 0-.1-.1l-.1-.1c0-.6-.1-1.2-.1-1.7C0 117.5 0 58.9.1.4.1.3.2.2.3 0z" fill="#ef0d1d"/><path id="sign" class="st0" d="M32.5 140.7c2.8-.1 6.5-.1 10.2-.3 6.9-.3 13.7-1.3 20.5-2.6 9.4-1.9 18.6-4.5 27.4-8.5 6.9-3.1 13.5-6.8 19-12 4.3-4 7.6-8.7 9-14.5 1.4-5.8.4-11.4-1.9-16.8-2.2-5.3-5.5-9.8-9.3-14.1-1.9-2.1-3.9-4.1-5.7-6.1-2-2.2-3.6-4.6-4.4-7.5-1.5-5.1-.1-9.5 3-13.6 3-4 6.9-7 11.1-9.6 6.3-4 13.1-7.1 20.1-9.8 9-3.5 18.2-6.3 27.6-8.4 1.6-.4 3.3-.6 5-.6 1.6-.1 2.3.7 2 2.3-.2 1-.6 2-1.2 2.9-2.8 3.8-6.7 6.1-11.4 7-3.7.7-7.4 1.1-11.1 1.8-8.7 1.6-17.4 3.5-25.7 6.9-3.7 1.5-7.3 3.2-10.4 5.7-1.9 1.5-3.6 3.3-4.7 5.6-1.3 2.9-.9 5.8.4 8.6 1.3 2.6 3.1 4.8 5.1 6.8 3.5 3.4 6.8 6.9 9.4 11 3.5 5.4 5.8 11.1 6.6 17.5.9 8-.9 15.4-4.8 22.3-4.4 7.8-10.6 14-17.7 19.3-9.5 7-20 12.1-31 16.1-9.8 3.6-19.9 6.3-30.2 8.3-6.9 1.3-13.9 2.2-20.9 3.3-1.1.2-2.2.1-3.3 0-2.2-.2-3.3-1.5-3.5-3.7-.1-1.9.4-3.7 1.3-5.4 2.6-4.9 6.3-8.7 11.4-10.9 2.4-1 4.7-1.3 8.1-1z"/></g></svg>